<?xml version="1.0" encoding="UTF-8"?>
<svg xmlns="http://www.w3.org/2000/svg" viewBox="0 0 500 340" width="500" height="340">
<rect width="500" height="340" fill="white"/>
<text x="250" y="25" text-anchor="middle" font-size="14" font-weight="bold" fill="#333">Combinatorial Prediction on Norman Dataset</text>
<line x1="70" y1="60" x2="470" y2="60" stroke="#eee" stroke-width="1"/>
<line x1="70" y1="115" x2="470" y2="115" stroke="#eee" stroke-width="1"/>
<line x1="70" y1="170" x2="470" y2="170" stroke="#eee" stroke-width="1"/>
<line x1="70" y1="225" x2="470" y2="225" stroke="#eee" stroke-width="1"/>
<line x1="70" y1="280" x2="470" y2="280" stroke="#eee" stroke-width="1"/>
<line x1="70" y1="280" x2="470" y2="280" stroke="#333" stroke-width="1.5"/>
<line x1="70" y1="50" x2="70" y2="280" stroke="#333" stroke-width="1.5"/>
<text x="22" y="170" text-anchor="middle" font-size="11" transform="rotate(-90,22,170)" fill="#555">Overall MSE</text>
<rect x="110" y="101" width="40" height="179" fill="#4267B2" rx="2"/>
<text x="130" y="96" text-anchor="middle" font-size="9" fill="#4267B2" font-weight="bold">0.0098</text>
<rect x="162" y="141" width="40" height="139" fill="#E8833A" rx="2"/>
<text x="182" y="136" text-anchor="middle" font-size="9" fill="#E8833A" font-weight="bold">0.0076</text>
<text x="156" y="295" text-anchor="middle" font-size="10" fill="#555">Overall MSE</text>
<rect x="205" y="93" width="40" height="187" fill="#4267B2" rx="2"/>
<text x="225" y="88" text-anchor="middle" font-size="9" fill="#4267B2" font-weight="bold">0.0102</text>
<rect x="257" y="138" width="40" height="142" fill="#E8833A" rx="2"/>
<text x="277" y="133" text-anchor="middle" font-size="9" fill="#E8833A" font-weight="bold">0.0078</text>
<text x="251" y="295" text-anchor="middle" font-size="10" fill="#555">combo</text>
<text x="251" y="309" text-anchor="middle" font-size="10" fill="#555">seen0</text>
<rect x="300" y="88" width="40" height="192" fill="#4267B2" rx="2"/>
<text x="320" y="83" text-anchor="middle" font-size="9" fill="#4267B2" font-weight="bold">0.0105</text>
<rect x="352" y="139" width="40" height="141" fill="#E8833A" rx="2"/>
<text x="372" y="134" text-anchor="middle" font-size="9" fill="#E8833A" font-weight="bold">0.0077</text>
<text x="346" y="295" text-anchor="middle" font-size="10" fill="#555">combo</text>
<text x="346" y="309" text-anchor="middle" font-size="10" fill="#555">seen1</text>
<rect x="395" y="136" width="40" height="144" fill="#4267B2" rx="2"/>
<text x="415" y="131" text-anchor="middle" font-size="9" fill="#4267B2" font-weight="bold">0.0079</text>
<rect x="447" y="150" width="40" height="130" fill="#E8833A" rx="2"/>
<text x="467" y="145" text-anchor="middle" font-size="9" fill="#E8833A" font-weight="bold">0.0071</text>
<text x="441" y="295" text-anchor="middle" font-size="10" fill="#555">combo</text>
<text x="441" y="309" text-anchor="middle" font-size="10" fill="#555">seen2</text>
<rect x="350" y="55" width="12" height="12" fill="#4267B2" rx="2"/>
<text x="368" y="66" font-size="11" fill="#555">scPert</text>
<rect x="350" y="78" width="12" height="12" fill="#E8833A" rx="2"/>
<text x="368" y="89" font-size="11" fill="#555">Ours</text>
</svg>